<?xml version="1.0" standalone="no"?>
<!DOCTYPE svg PUBLIC "-//W3C//DTD SVG 20010904//EN"
 "http://www.w3.org/TR/2001/REC-SVG-20010904/DTD/svg10.dtd">
<svg version="1.0" xmlns="http://www.w3.org/2000/svg"
 width="1024.000000pt" height="1024.000000pt" viewBox="0 0 1024.000000 1024.000000"
 preserveAspectRatio="xMidYMid meet">
<metadata>
Created by potrace 1.14, written by Peter Selinger 2001-2017
</metadata>
<g transform="translate(0.000000,1024.000000) scale(0.100000,-0.100000)"
fill="#000000" stroke="none">
<path d="M0 5120 l0 -5120 5120 0 5120 0 0 5120 0 5120 -5120 0 -5120 0 0
-5120z m9310 3949 c24 -44 -5 -28 -42 24 l-21 30 27 -18 c15 -10 31 -26 36
-36z m354 -549 c12 -30 33 -92 45 -137 19 -67 21 -86 11 -98 -18 -22 -26 -12
-40 47 -7 29 -26 90 -41 135 -33 93 -36 116 -13 111 9 -2 26 -28 38 -58z m168
-978 c4 -72 1 -107 -7 -119 -10 -14 -14 10 -20 130 -8 157 2 250 16 147 4 -30
9 -101 11 -158z m-2404 -388 c119 -24 194 -66 288 -159 67 -66 89 -96 128
-175 27 -56 54 -133 66 -185 56 -250 27 -644 -79 -1057 -31 -122 -93 -330
-118 -394 -7 -20 317 -53 532 -54 116 -1 168 -18 205 -70 63 -88 13 -287 -89
-360 -61 -43 -106 -51 -285 -51 -181 1 -343 13 -470 37 -43 7 -82 14 -87 14
-5 0 -38 -58 -73 -128 -353 -705 -851 -1258 -1285 -1429 -139 -55 -209 -68
-361 -68 -128 1 -140 3 -220 33 -191 73 -327 223 -431 478 -104 256 -173 598
-197 984 l-7 115 -29 -80 c-282 -776 -608 -1249 -998 -1446 -105 -53 -204 -79
-323 -86 -196 -10 -344 45 -481 182 -90 89 -133 152 -198 282 -132 267 -209
596 -258 1098 -19 198 -16 888 5 1155 34 421 92 888 128 1018 18 70 54 150 81
182 59 71 159 104 302 98 158 -5 235 -52 267 -160 17 -57 11 -207 -15 -393
-157 -1116 -159 -2039 -7 -2493 43 -128 85 -207 141 -263 103 -103 210 -88
353 50 217 209 433 622 637 1216 147 430 263 893 375 1496 61 334 82 389 172
469 64 56 146 80 277 80 92 0 108 -3 157 -27 117 -60 142 -165 99 -427 -56
-346 -92 -698 -111 -1101 -14 -285 -6 -802 16 -1055 42 -494 150 -716 369
-760 145 -30 294 37 463 208 180 182 397 511 559 846 l62 129 -71 51 c-193
135 -344 337 -426 569 -62 175 -75 268 -75 512 0 187 3 237 22 330 49 247 128
415 262 558 182 195 466 285 728 231z m2422 -438 c0 -109 -3 -147 -15 -162
-13 -17 -14 -5 -15 117 0 143 6 202 21 193 5 -3 9 -69 9 -148z m-12 -1029
c-19 -33 -24 232 -6 288 12 37 13 29 16 -113 2 -110 -1 -159 -10 -175z m0
-870 c-19 -33 -24 232 -6 288 12 37 13 29 16 -113 2 -110 -1 -159 -10 -175z
m0 -870 c-19 -33 -24 232 -6 288 12 37 13 29 16 -113 2 -110 -1 -159 -10 -175z
m4 -725 c-2 -81 -8 -151 -13 -157 -10 -10 -13 255 -3 293 14 49 19 4 16 -136z
m-32 -819 c-14 -134 -21 -185 -27 -180 -4 5 13 202 23 266 3 18 8 31 11 28 3
-3 0 -54 -7 -114z m-8353 -1669 c63 -35 73 -54 29 -54 -35 0 -115 57 -116 83
0 14 24 6 87 -29z m694 -243 c52 -10 118 -22 148 -26 48 -7 52 -9 37 -23 -14
-14 -26 -14 -129 1 -62 9 -133 23 -157 31 -44 13 -44 14 -20 24 14 6 26 11 26
11 1 1 44 -8 95 -18z m6036 -17 c-3 -3 -12 -4 -19 -1 -8 3 -5 6 6 6 11 1 17
-2 13 -5z m-634 -65 c-13 -13 -322 -26 -310 -13 5 5 68 12 140 15 73 3 143 6
157 7 17 1 21 -1 13 -9z m-4348 -9 c-4 -6 -71 -10 -168 -10 -108 0 -157 4
-147 10 20 13 323 13 315 0z m877 -2 c-9 -9 -62 -14 -175 -16 -105 -2 -158 0
-152 6 17 17 45 20 195 21 115 1 142 -2 132 -11z m870 0 c-9 -9 -62 -14 -175
-16 -105 -2 -158 0 -152 6 17 17 45 20 195 21 115 1 142 -2 132 -11z m870 0
c-9 -9 -62 -14 -175 -16 -105 -2 -158 0 -152 6 17 17 45 20 195 21 115 1 142
-2 132 -11z m870 0 c-9 -9 -62 -14 -175 -16 -105 -2 -158 0 -152 6 17 17 45
20 195 21 115 1 142 -2 132 -11z"/>
<path d="M7112 6629 c-48 -15 -119 -91 -152 -163 -48 -106 -65 -209 -64 -396
1 -296 64 -472 226 -631 l62 -61 34 98 c45 133 106 377 129 510 24 147 25 406
0 485 -19 63 -50 114 -88 142 -31 23 -100 30 -147 16z"/>
</g>
</svg>
